<?xml version="1.0" encoding="utf-8"?>
<!-- Generator: Adobe Illustrator 28.1.0, SVG Export Plug-In . SVG Version: 6.00 Build 0)  -->
<svg version="1.1" xmlns="http://www.w3.org/2000/svg" xmlns:xlink="http://www.w3.org/1999/xlink" x="0px" y="0px"
	 viewBox="0 0 2448.5 850.4" style="enable-background:new 0 0 2448.5 850.4;" xml:space="preserve">
<style type="text/css">
	.st0{fill:none;stroke:#9CF2E2;stroke-width:9.9999;stroke-miterlimit:9.9999;}
	.st1{fill:#9CF2E2;}
	.st2{fill:#1832C8;}
</style>
<g id="b">
	<g id="c">
		<line class="st0" x1="1304.1" y1="425.2" x2="1304.1" y2="566.9"/>
		<path class="st1" d="M1417.5,507.8h41.5v8.7h-31.9v17.2h26.9v8.3h-26.9v25h-9.6V507.8L1417.5,507.8z"/>
		<path class="st1" d="M1509.7,567.1h-9.1v-8c-1.7,2.8-4,5-6.8,6.5c-2.8,1.6-6,2.4-9.6,2.4c-2.5,0-4.8-0.4-6.8-1.3
			c-2-0.8-3.7-2-5-3.5c-1.4-1.5-2.4-3.3-3.2-5.3c-0.7-2-1.1-4.3-1.1-6.7v-29.8h9.1v27.3c0,3.4,1,5.9,2.9,7.7s4.4,2.7,7.4,2.7
			c1.9,0,3.6-0.4,5.2-1.3c1.6-0.8,2.9-2,4.1-3.4c1.2-1.4,2.1-2.9,2.7-4.7c0.7-1.7,1.1-3.5,1.1-5.3v-23.2h9.1L1509.7,567.1
			L1509.7,567.1z"/>
		<path class="st1" d="M1536.3,507.5v13.8h12.4v8h-12.4v23.2c0,2.8,0.6,4.6,1.8,5.6c1.2,1,2.8,1.5,4.8,1.5c0.8,0,1.7-0.1,2.7-0.2
			s2-0.3,3-0.4v8.4c-1.4,0.2-2.7,0.3-4,0.4c-1.3,0.1-2.5,0.2-3.7,0.2c-2.1,0-4-0.2-5.8-0.7s-3.2-1.2-4.3-2.3
			c-1.2-1.1-2.1-2.5-2.7-4.4c-0.7-1.8-1-4.1-1-6.8v-24.5h-8.4v-8h8.4v-13.8L1536.3,507.5L1536.3,507.5z"/>
		<path class="st1" d="M1599.6,567.1h-9.1v-8c-1.7,2.8-4,5-6.8,6.5c-2.8,1.6-6,2.4-9.6,2.4c-2.5,0-4.8-0.4-6.8-1.3
			c-2-0.8-3.7-2-5-3.5c-1.4-1.5-2.4-3.3-3.2-5.3c-0.7-2-1.1-4.3-1.1-6.7v-29.8h9.1v27.3c0,3.4,1,5.9,2.9,7.7s4.4,2.7,7.4,2.7
			c1.9,0,3.6-0.4,5.2-1.3c1.6-0.8,2.9-2,4.1-3.4c1.2-1.4,2.1-2.9,2.7-4.7c0.7-1.7,1.1-3.5,1.1-5.3v-23.2h9.1L1599.6,567.1
			L1599.6,567.1z"/>
		<path class="st1" d="M1611.9,521.3h9.1v9.5c1.9-3.5,4.4-6.1,7.4-7.8c3.1-1.7,6.4-2.6,10-2.6v9.7c-2,0-4,0.3-6.1,1
			c-2.1,0.7-3.9,1.6-5.6,2.9c-1.7,1.3-3,2.9-4.1,4.9c-1.1,2-1.6,4.2-1.7,6.8v21.3h-9.1L1611.9,521.3L1611.9,521.3z"/>
		<path class="st1" d="M1653,546.6c0.2,1.8,0.7,3.5,1.5,5.1c0.8,1.6,1.8,2.9,3,4.1s2.7,2,4.3,2.7c1.6,0.7,3.5,1,5.5,1
			c2.7,0,4.9-0.6,6.9-1.7c1.9-1.2,3.4-2.6,4.4-4.3h10.5c-1.4,4.4-3.9,7.9-7.8,10.5c-3.8,2.7-8.5,4-14.2,4c-3.4,0-6.5-0.6-9.4-1.9
			s-5.4-2.9-7.5-5c-2.1-2.1-3.8-4.6-5-7.5c-1.2-2.9-1.9-6-1.9-9.3c0-3.3,0.6-6.5,1.8-9.4c1.2-2.9,2.8-5.4,4.9-7.5
			c2.1-2.1,4.6-3.8,7.4-5c2.9-1.2,6-1.8,9.3-1.8c3.2,0,6.2,0.5,8.9,1.4c2.7,0.9,5.1,2.3,7.2,4c2.1,1.7,3.8,3.8,5,6.2
			c1.3,2.4,2.1,5.1,2.4,8.1c0.1,1.2,0.2,2.3,0.1,3.2s-0.1,1.9-0.1,3L1653,546.6L1653,546.6z M1680.4,540.1c-0.3-3.4-1.8-6.1-4.2-8.1
			c-2.4-2-5.5-3-9.2-3s-6.7,1-9,3.1c-2.4,2.1-3.9,4.8-4.6,8L1680.4,540.1L1680.4,540.1z"/>
		<path class="st1" d="M1720.9,524.4c0-5.5,1.9-9.8,5.8-12.9c3.8-3,9.2-4.6,16.2-4.6c7,0,12.5,1.6,16.3,4.9
			c3.9,3.3,5.9,7.7,6.1,13.2h-10.3c-0.1-1.2-0.3-2.5-0.8-3.6s-1.2-2.2-2.3-3.1c-1-0.9-2.3-1.6-3.8-2.1c-1.6-0.5-3.4-0.8-5.6-0.8
			c-3.5,0-6.4,0.8-8.4,2.3c-2.1,1.5-3.1,3.7-3.1,6.4c0,1.7,0.4,3,1.2,4.1s1.8,2,3.1,2.7c1.3,0.7,2.8,1.3,4.6,1.8
			c1.7,0.5,3.5,0.9,5.4,1.3c2.5,0.5,5,1.1,7.5,1.7c2.5,0.6,4.8,1.5,6.9,2.6c2.1,1.2,3.7,2.8,5,4.7c1.3,2,1.9,4.6,1.9,7.7
			c0,5.4-1.9,9.6-5.6,12.6c-3.8,3-9.3,4.5-16.7,4.5c-7.4,0-13.7-1.6-18-4.9c-4.3-3.3-6.5-7.7-6.5-13.3h10.3c0.5,3.1,1.9,5.5,4.3,7.2
			c2.4,1.7,5.7,2.5,9.8,2.5c3.8,0,6.8-0.7,9-2.1s3.3-3.3,3.3-5.6c0-1.7-0.4-3-1.2-4.1c-0.8-1.1-1.9-1.9-3.2-2.6
			c-1.3-0.7-2.9-1.2-4.6-1.7s-3.5-0.8-5.4-1.2c-2.5-0.5-4.9-1-7.4-1.7c-2.5-0.7-4.7-1.6-6.8-2.9c-2-1.3-3.7-2.9-4.9-5
			C1721.5,530.5,1720.9,527.7,1720.9,524.4L1720.9,524.4z"/>
		<path class="st1" d="M1818.7,567.1h-9.1v-8c-1.7,2.8-4,5-6.8,6.5c-2.8,1.6-6,2.4-9.6,2.4c-2.5,0-4.8-0.4-6.8-1.3
			c-2-0.8-3.7-2-5-3.5c-1.4-1.5-2.4-3.3-3.2-5.3c-0.7-2-1.1-4.3-1.1-6.7v-29.8h9.1v27.3c0,3.4,1,5.9,2.9,7.7s4.4,2.7,7.4,2.7
			c1.9,0,3.6-0.4,5.2-1.3c1.6-0.8,2.9-2,4.1-3.4c1.2-1.4,2.1-2.9,2.7-4.7c0.7-1.7,1.1-3.5,1.1-5.3v-23.2h9.1L1818.7,567.1
			L1818.7,567.1z"/>
		<path class="st1" d="M1827.8,544.2c0-3.4,0.6-6.5,1.9-9.4c1.2-2.9,2.9-5.4,5.1-7.5c2.2-2.1,4.7-3.8,7.6-5c2.9-1.2,6-1.8,9.4-1.8
			c2.8,0,5.5,0.4,8,1.3c2.5,0.9,4.8,2,6.8,3.6s3.6,3.4,5,5.5c1.4,2.1,2.3,4.5,2.8,7.1h-10.1c-0.8-2.5-2.3-4.5-4.6-6.1
			c-2.2-1.6-4.9-2.4-8-2.4c-2.2,0-4.2,0.4-5.9,1.2c-1.8,0.8-3.3,1.9-4.5,3.3c-1.2,1.4-2.2,3-2.9,4.8c-0.7,1.8-1,3.7-1,5.6
			c0,1.9,0.3,3.7,1,5.5c0.7,1.8,1.6,3.3,2.9,4.7s2.7,2.5,4.5,3.3c1.8,0.8,3.8,1.2,5.9,1.2c3.1,0,5.8-0.8,8-2.3
			c2.2-1.6,3.7-3.5,4.6-6h10.1c-0.5,2.5-1.5,4.8-2.8,6.9c-1.4,2.1-3,3.9-5,5.4c-2,1.5-4.3,2.7-6.8,3.6c-2.5,0.8-5.2,1.3-8,1.3
			c-3.4,0-6.5-0.6-9.4-1.9c-2.9-1.2-5.4-2.9-7.6-5c-2.2-2.1-3.8-4.6-5.1-7.5C1828.5,550.6,1827.8,547.5,1827.8,544.2L1827.8,544.2z"
			/>
		<path class="st1" d="M1880.3,544.2c0-3.4,0.6-6.5,1.9-9.4c1.2-2.9,2.9-5.4,5.1-7.5c2.2-2.1,4.7-3.8,7.6-5c2.9-1.2,6-1.8,9.4-1.8
			c2.8,0,5.5,0.4,8,1.3c2.5,0.9,4.8,2,6.8,3.6s3.6,3.4,5,5.5c1.4,2.1,2.3,4.5,2.8,7.1h-10.1c-0.8-2.5-2.3-4.5-4.6-6.1
			c-2.2-1.6-4.9-2.4-8-2.4c-2.2,0-4.2,0.4-5.9,1.2c-1.8,0.8-3.3,1.9-4.5,3.3c-1.2,1.4-2.2,3-2.9,4.8c-0.7,1.8-1,3.7-1,5.6
			c0,1.9,0.3,3.7,1,5.5c0.7,1.8,1.6,3.3,2.9,4.7s2.7,2.5,4.5,3.3c1.8,0.8,3.8,1.2,5.9,1.2c3.1,0,5.8-0.8,8-2.3
			c2.2-1.6,3.7-3.5,4.6-6h10.1c-0.5,2.5-1.5,4.8-2.8,6.9c-1.4,2.1-3,3.9-5,5.4c-2,1.5-4.3,2.7-6.8,3.6c-2.5,0.8-5.2,1.3-8,1.3
			c-3.4,0-6.5-0.6-9.4-1.9c-2.9-1.2-5.4-2.9-7.6-5c-2.2-2.1-3.8-4.6-5.1-7.5C1880.9,550.6,1880.3,547.5,1880.3,544.2L1880.3,544.2z"
			/>
		<path class="st1" d="M1942.3,546.6c0.2,1.8,0.7,3.5,1.5,5.1c0.8,1.6,1.8,2.9,3,4.1s2.7,2,4.3,2.7c1.7,0.7,3.5,1,5.5,1
			c2.6,0,4.9-0.6,6.9-1.7c1.9-1.2,3.4-2.6,4.4-4.3h10.5c-1.4,4.4-3.9,7.9-7.8,10.5c-3.8,2.7-8.6,4-14.2,4c-3.4,0-6.5-0.6-9.4-1.9
			s-5.4-2.9-7.5-5c-2.1-2.1-3.8-4.6-5-7.5c-1.2-2.9-1.9-6-1.9-9.3c0-3.3,0.6-6.5,1.8-9.4c1.2-2.9,2.8-5.4,4.9-7.5
			c2.1-2.1,4.6-3.8,7.4-5c2.9-1.2,6-1.8,9.3-1.8c3.2,0,6.1,0.5,8.9,1.4c2.7,0.9,5.2,2.3,7.2,4c2.1,1.7,3.7,3.8,5,6.2
			c1.3,2.4,2.1,5.1,2.4,8.1c0.1,1.2,0.2,2.3,0.1,3.2s-0.1,1.9-0.1,3L1942.3,546.6L1942.3,546.6z M1969.7,540.1
			c-0.3-3.4-1.8-6.1-4.2-8.1c-2.4-2-5.5-3-9.2-3c-3.7,0-6.7,1-9,3.1c-2.4,2.1-3.9,4.8-4.6,8L1969.7,540.1L1969.7,540.1z"/>
		<path class="st1" d="M1987.4,534.2c0-4.2,1.6-7.6,4.8-10c3.2-2.5,7.6-3.7,13.1-3.7c5.5,0,10,1.2,13.1,3.7
			c3.2,2.5,4.8,5.8,4.9,10.2h-9.5c-0.1-1.9-0.8-3.4-2.3-4.5c-1.5-1.1-3.5-1.6-6-1.6c-2.8,0-5,0.5-6.5,1.4s-2.3,2.3-2.3,4.2
			s0.7,3.1,2,4c1.4,0.9,3.1,1.6,5.1,2.1s4.3,1,6.6,1.4c2.4,0.4,4.6,1.1,6.6,2c2.1,0.9,3.8,2.2,5.1,3.8c1.4,1.6,2,3.9,2,6.8
			c0,4.3-1.6,7.7-4.8,10.1c-3.2,2.5-7.8,3.7-13.7,3.7c-5.9,0-11-1.3-14.4-3.8c-3.4-2.5-5.1-5.9-5.1-10.2h9.5c0.7,4.1,4,6.2,10.2,6.2
			c6.1,0,8.8-1.8,8.8-5.4c0-1.8-0.7-3.1-2-3.9c-1.4-0.8-3.1-1.5-5.1-2c-2-0.5-4.2-1-6.6-1.4s-4.6-1.1-6.6-2c-2-0.9-3.7-2.2-5.1-4
			C1988.1,539.7,1987.4,537.3,1987.4,534.2L1987.4,534.2z"/>
		<path class="st1" d="M2032.9,534.2c0-4.2,1.6-7.6,4.8-10c3.2-2.5,7.5-3.7,13.1-3.7s10,1.2,13.1,3.7c3.1,2.5,4.8,5.8,4.9,10.2h-9.5
			c-0.1-1.9-0.8-3.4-2.3-4.5c-1.5-1.1-3.5-1.6-6-1.6c-2.8,0-5,0.5-6.5,1.4s-2.3,2.3-2.3,4.2s0.7,3.1,2,4c1.4,0.9,3.1,1.6,5.1,2.1
			c2.1,0.5,4.3,1,6.6,1.4c2.4,0.4,4.6,1.1,6.6,2c2.1,0.9,3.8,2.2,5.1,3.8c1.4,1.6,2,3.9,2,6.8c0,4.3-1.6,7.7-4.8,10.1
			s-7.8,3.7-13.7,3.7c-5.9,0-11-1.3-14.4-3.8c-3.4-2.5-5.1-5.9-5.1-10.2h9.5c0.7,4.1,4,6.2,10.2,6.2c6.1,0,8.9-1.8,8.9-5.4
			c0-1.8-0.7-3.1-2-3.9c-1.4-0.8-3.1-1.5-5.1-2c-2-0.5-4.2-1-6.6-1.4c-2.4-0.4-4.6-1.1-6.6-2c-2-0.9-3.7-2.2-5.1-4
			S2032.9,537.3,2032.9,534.2L2032.9,534.2z"/>
		<path class="st1" d="M2078.2,561.9c0-1.6,0.6-3,1.8-4.2c1.2-1.2,2.6-1.7,4.3-1.7s3.1,0.6,4.2,1.7c1.1,1.2,1.7,2.5,1.7,4.2
			c0,1.7-0.6,3.2-1.7,4.3c-1.1,1.2-2.6,1.8-4.2,1.8s-3.2-0.6-4.3-1.8S2078.2,563.6,2078.2,561.9z"/>
		<path class="st1" d="M1417.5,425.5h41.5v8.7h-31.9v17.2h26.9v8.3h-26.9v25h-9.6V425.5L1417.5,425.5z"/>
		<path class="st1" d="M1463.1,461.8c0-3.4,0.6-6.5,1.9-9.4c1.2-2.9,2.9-5.4,5-7.5c2.1-2.1,4.6-3.8,7.5-5c2.9-1.2,6-1.8,9.4-1.8
			s6.5,0.6,9.4,1.8c2.9,1.2,5.4,2.9,7.6,5c2.2,2.1,3.8,4.6,5.1,7.5s1.9,6,1.9,9.4s-0.6,6.4-1.9,9.3s-2.9,5.4-5.1,7.5
			c-2.2,2.1-4.7,3.8-7.6,5c-2.9,1.2-6,1.9-9.4,1.9s-6.5-0.6-9.4-1.9s-5.4-2.9-7.5-5c-2.1-2.1-3.8-4.6-5-7.5
			C1463.8,468.2,1463.1,465.1,1463.1,461.8z M1472.8,461.9c0,1.9,0.3,3.7,1,5.5c0.7,1.8,1.6,3.3,2.9,4.7c1.2,1.4,2.7,2.4,4.5,3.2
			c1.7,0.8,3.7,1.2,5.9,1.2s4.1-0.4,5.8-1.2c1.7-0.8,3.2-1.9,4.5-3.2s2.2-2.9,2.9-4.7c0.7-1.8,1-3.6,1-5.5c0-1.9-0.3-3.8-1-5.6
			c-0.7-1.8-1.6-3.4-2.8-4.7c-1.2-1.4-2.7-2.5-4.5-3.3c-1.7-0.8-3.7-1.2-5.9-1.2s-4.1,0.4-5.9,1.2c-1.7,0.8-3.2,1.9-4.5,3.3
			c-1.2,1.4-2.2,2.9-2.9,4.7C1473.1,458.1,1472.8,460,1472.8,461.9L1472.8,461.9z"/>
		<path class="st1" d="M1519.9,439h9.1v9.5c1.9-3.5,4.4-6.1,7.4-7.8c3.1-1.7,6.4-2.6,10-2.6v9.7c-2,0-4,0.3-6.1,1
			c-2.1,0.6-3.9,1.6-5.6,2.9c-1.7,1.3-3,2.9-4.1,4.9c-1.1,1.9-1.6,4.2-1.7,6.8v21.3h-9.1L1519.9,439L1519.9,439z"/>
		<path class="st1" d="M1564.5,484.7l-15-45.7h10l10,32.7l10.2-32.7h9.1l10.2,32.7l9.9-32.7h10l-15,45.7h-9l-10.5-33.4l-10.7,33.4
			H1564.5z"/>
		<path class="st1" d="M1669.1,484.7h-9.1v-6.6c-1.5,2.3-3.6,4.1-6.1,5.4c-2.5,1.3-5.7,2-9.5,2c-3.2,0-6.2-0.6-9-1.9s-5.2-2.9-7.2-5
			c-2-2.1-3.6-4.6-4.7-7.5c-1.1-2.9-1.7-5.9-1.7-9.2s0.6-6.5,1.7-9.4c1.1-2.9,2.7-5.4,4.7-7.6c2-2.1,4.4-3.8,7.2-5
			c2.8-1.2,5.8-1.8,9-1.8c3.8,0,7,0.7,9.5,2c2.5,1.3,4.5,3.2,6.1,5.5V439h9.1V484.7L1669.1,484.7z M1660,459.3
			c-0.2-1.7-0.7-3.3-1.5-4.8c-0.8-1.5-1.8-2.8-3-3.9c-1.2-1.1-2.7-2-4.3-2.6c-1.7-0.6-3.4-1-5.4-1c-2.2,0-4.2,0.4-6,1.2
			c-1.8,0.8-3.3,1.9-4.5,3.3c-1.2,1.4-2.2,3-2.8,4.8c-0.7,1.8-1,3.7-1,5.6c0,1.9,0.3,3.8,1,5.5c0.7,1.7,1.6,3.3,2.9,4.6
			c1.2,1.4,2.7,2.4,4.5,3.2c1.8,0.8,3.8,1.2,5.9,1.2c1.9,0,3.7-0.3,5.4-0.9s3.1-1.5,4.3-2.6c1.2-1.1,2.2-2.4,3-3.8
			c0.8-1.4,1.3-3,1.5-4.6L1660,459.3L1660,459.3z"/>
		<path class="st1" d="M1681.4,439h9.1v9.5c1.9-3.5,4.4-6.1,7.4-7.8c3.1-1.7,6.4-2.6,10-2.6v9.7c-2,0-4,0.3-6.1,1
			c-2.1,0.6-3.9,1.6-5.6,2.9c-1.6,1.3-3,2.9-4.1,4.9c-1.1,1.9-1.6,4.2-1.7,6.8v21.3h-9.1L1681.4,439L1681.4,439z"/>
		<path class="st1" d="M1713,461.9c0-3.4,0.6-6.5,1.7-9.4c1.1-2.9,2.7-5.4,4.7-7.6c2-2.1,4.4-3.8,7.2-5c2.8-1.2,5.8-1.8,9-1.8
			c3.8,0,6.9,0.7,9.4,2c2.5,1.3,4.5,3.1,6.1,5.4V421h9.1v63.7h-9.1v-6.6c-1.5,2.3-3.6,4.1-6.1,5.4c-2.5,1.3-5.6,2-9.4,2
			c-3.2,0-6.2-0.6-9-1.9c-2.8-1.2-5.2-2.9-7.2-5c-2-2.1-3.6-4.6-4.7-7.5C1713.6,468.3,1713,465.2,1713,461.9L1713,461.9z
			 M1751,458.9c-0.6-3.5-2.2-6.4-4.7-8.6c-2.6-2.2-5.7-3.3-9.4-3.3c-2.2,0-4.2,0.4-6,1.2c-1.8,0.8-3.3,1.9-4.5,3.3
			c-1.2,1.4-2.2,3-2.8,4.8c-0.7,1.8-1,3.7-1,5.6c0,1.9,0.3,3.8,1,5.5c0.7,1.7,1.6,3.3,2.9,4.6c1.2,1.4,2.7,2.4,4.5,3.2
			c1.8,0.8,3.8,1.2,5.9,1.2c1.9,0,3.7-0.3,5.3-0.9c1.6-0.6,3-1.4,4.2-2.5c1.2-1.1,2.3-2.3,3.1-3.7c0.8-1.4,1.3-2.9,1.6-4.5
			L1751,458.9L1751,458.9z"/>
		<path class="st1" d="M1811.5,425.5h12l22.5,59.3h-10l-4.6-12.1h-27.8l-4.6,12.1h-10L1811.5,425.5L1811.5,425.5z M1828.3,464.3
			l-10.8-28.7l-10.9,28.7H1828.3L1828.3,464.3z"/>
		<path class="st1" d="M1849.1,461.9c0-3.4,0.6-6.5,1.7-9.4c1.1-2.9,2.7-5.4,4.7-7.6c2-2.1,4.4-3.8,7.2-5c2.8-1.2,5.8-1.8,9-1.8
			c3.8,0,6.9,0.7,9.4,2c2.5,1.3,4.5,3.1,6.1,5.4V421h9.1v63.7h-9.1v-6.6c-1.5,2.3-3.6,4.1-6.1,5.4c-2.5,1.3-5.6,2-9.4,2
			c-3.2,0-6.2-0.6-9-1.9s-5.2-2.9-7.2-5c-2-2.1-3.6-4.6-4.7-7.5C1849.6,468.3,1849.1,465.2,1849.1,461.9L1849.1,461.9z
			 M1887.1,458.9c-0.6-3.5-2.2-6.4-4.7-8.6c-2.6-2.2-5.7-3.3-9.4-3.3c-2.2,0-4.2,0.4-6,1.2c-1.8,0.8-3.3,1.9-4.5,3.3
			c-1.2,1.4-2.2,3-2.8,4.8c-0.6,1.8-1,3.7-1,5.6c0,1.9,0.3,3.8,1,5.5c0.7,1.7,1.6,3.3,2.9,4.6c1.2,1.4,2.7,2.4,4.5,3.2
			c1.8,0.8,3.8,1.2,5.9,1.2c1.9,0,3.7-0.3,5.3-0.9c1.6-0.6,3-1.4,4.2-2.5c1.2-1.1,2.3-2.3,3.1-3.7c0.8-1.4,1.3-2.9,1.6-4.5
			L1887.1,458.9L1887.1,458.9z"/>
		<path class="st1" d="M1921.1,484.7l-17.8-45.7h10l12.9,34.9l13-34.9h10l-17.8,45.7H1921.1L1921.1,484.7z"/>
		<path class="st1" d="M1954.9,427c0-1.6,0.6-3,1.7-4.2c1.2-1.1,2.6-1.7,4.3-1.7s3.1,0.6,4.2,1.7c1.1,1.1,1.7,2.5,1.7,4.2
			c0,1.6-0.6,3-1.7,4.2c-1.1,1.1-2.5,1.7-4.2,1.7s-3.1-0.6-4.3-1.7S1954.9,428.6,1954.9,427z M1956.3,439h9.1v45.7h-9.1V439z"/>
		<path class="st1" d="M1976.3,451.8c0-4.2,1.6-7.6,4.8-10c3.2-2.4,7.6-3.7,13.1-3.7c5.5,0,10,1.2,13.1,3.7
			c3.2,2.5,4.8,5.8,4.9,10.2h-9.5c-0.1-1.9-0.8-3.4-2.3-4.5c-1.5-1.1-3.5-1.6-6-1.6c-2.8,0-5,0.5-6.5,1.4s-2.3,2.3-2.3,4.2
			c0,1.8,0.7,3.1,2,4c1.4,0.9,3.1,1.6,5.1,2.1s4.3,1,6.6,1.4c2.4,0.4,4.6,1.1,6.6,2c2.1,0.9,3.8,2.2,5.1,3.8c1.4,1.6,2,3.9,2,6.8
			c0,4.3-1.6,7.7-4.8,10.1c-3.2,2.5-7.8,3.7-13.7,3.7c-5.9,0-11-1.3-14.4-3.8c-3.4-2.5-5.1-5.9-5.1-10.2h9.5c0.7,4.1,4,6.2,10.2,6.2
			c6.1,0,8.8-1.8,8.8-5.4c0-1.8-0.7-3.1-2-3.9c-1.4-0.8-3.1-1.5-5.1-2c-2-0.5-4.2-1-6.6-1.4c-2.4-0.4-4.6-1.1-6.6-2
			c-2-0.9-3.7-2.2-5.1-4C1977,457.3,1976.3,454.9,1976.3,451.8L1976.3,451.8z"/>
		<path class="st1" d="M2020,461.8c0-3.4,0.6-6.5,1.9-9.4c1.2-2.9,2.9-5.4,5-7.5c2.1-2.1,4.6-3.8,7.5-5c2.9-1.2,6-1.8,9.4-1.8
			s6.5,0.6,9.4,1.8c2.9,1.2,5.4,2.9,7.6,5c2.1,2.1,3.9,4.6,5.1,7.5s1.9,6,1.9,9.4s-0.6,6.4-1.9,9.3s-2.9,5.4-5.1,7.5
			c-2.1,2.1-4.7,3.8-7.6,5c-2.9,1.2-6,1.9-9.4,1.9s-6.5-0.6-9.4-1.9s-5.4-2.9-7.5-5c-2.1-2.1-3.8-4.6-5-7.5
			C2020.6,468.2,2020,465.1,2020,461.8L2020,461.8z M2029.7,461.9c0,1.9,0.3,3.7,1,5.5c0.7,1.8,1.6,3.3,2.9,4.7
			c1.2,1.4,2.7,2.4,4.5,3.2c1.7,0.8,3.7,1.2,5.9,1.2s4.1-0.4,5.8-1.2c1.7-0.8,3.2-1.9,4.5-3.2s2.2-2.9,2.9-4.7c0.7-1.8,1-3.6,1-5.5
			c0-1.9-0.3-3.8-1-5.6c-0.6-1.8-1.6-3.4-2.8-4.7c-1.2-1.4-2.7-2.5-4.5-3.3c-1.7-0.8-3.7-1.2-5.9-1.2s-4.1,0.4-5.9,1.2
			c-1.7,0.8-3.2,1.9-4.5,3.3c-1.2,1.4-2.2,2.9-2.9,4.7C2030,458.1,2029.7,460,2029.7,461.9L2029.7,461.9z"/>
		<path class="st1" d="M2076.8,439h9.1v9.5c1.9-3.5,4.4-6.1,7.4-7.8c3.1-1.7,6.4-2.6,10-2.6v9.7c-2,0-4,0.3-6.1,1
			c-2.1,0.6-3.9,1.6-5.6,2.9c-1.6,1.3-3,2.9-4.1,4.9s-1.6,4.2-1.7,6.8v21.3h-9.1L2076.8,439L2076.8,439z"/>
		<path class="st1" d="M2116.5,503.1l7.3-18.8l-17.4-45.3h9.9l12.1,32.9l12.7-32.9h9.9l-25.3,64.1H2116.5L2116.5,503.1z"/>
		<path class="st1" d="M2153,479.5c0-1.6,0.6-3,1.8-4.2c1.2-1.1,2.6-1.7,4.3-1.7s3.1,0.6,4.2,1.7c1.1,1.1,1.7,2.5,1.7,4.2
			s-0.6,3.2-1.7,4.3s-2.6,1.8-4.2,1.8s-3.2-0.6-4.3-1.8C2153.6,482.7,2153,481.2,2153,479.5z"/>
		<path class="st2" d="M483.9,371.3c6.9-23,18.7-43.9,34.2-61.5c-21-15.8-45.8-25-71.1-26.2c-2.1-0.1-4.3-0.1-6.4-0.1
			c-33.4,0-64,12.2-87.6,32.3c-16.7-19.8-41.7-32.3-69.6-32.3v69.1c12.2,0,22.1,9.9,22.1,22.1v41.9c0,0.6,0,1.3,0,1.9V567h69.1
			V417.6c0.5-35.9,29.9-65,65.9-65c1,0,2.1,0,3.1,0.1c13.4,0.6,26.9,6.5,37.9,16.5L483.9,371.3L483.9,371.3z"/>
		<path class="st2" d="M1050.3,497.8c-40,0-72.6-32.6-72.6-72.6s32.6-72.6,72.6-72.6l0,0v-69.1l0,0c-41.8,0-79.4,18.2-105.4,47.1
			c-24.8-28.8-61.5-47-102.3-47s-75.7,17.4-100.5,44.9c-24.7-27.5-60.6-44.9-100.5-44.9c-74.5,0-135.1,60.6-135.1,135.1V567h69.1
			V418.6c0-36.4,29.6-65.9,65.9-65.9c36.4,0,65.1,28.8,65.9,64.5c0,0.5,0,1,0,1.5V567h0.1h69.1V418.6c0-0.5,0-1,0-1.5
			c0.8-35.7,30-64.5,65.9-64.5c35.9,0,65.9,29.6,65.9,65.9v242.8h69.1V546.9c21.3,12.7,46.1,20.1,72.7,20.1
			c78.1,0,141.7-63.6,141.7-141.7H1123C1123,465.3,1090.4,497.8,1050.3,497.8L1050.3,497.8z"/>
		<path class="st1" d="M1163.1,283.5h-90V335l77.5-20.4l-77.5,54.7v33.2h33.2l54.7-77.5l-20.4,77.5h51.5v-90
			C1192.1,296.5,1179.1,283.5,1163.1,283.5L1163.1,283.5z"/>
	</g>
</g>
<g id="Layer_1">
</g>
</svg>
